<svg xmlns="http://www.w3.org/2000/svg" viewBox="0 0 1200 1400" fill="none">
  <rect width="1200" height="1400" fill="#090909"/>
  <g opacity=".18" stroke="#EDEDED">
    <path d="M80 160H1120M80 320H1120M80 480H1120M80 640H1120M80 800H1120M80 960H1120M80 1120H1120"/>
    <path d="M140 80V1320M340 80V1320M540 80V1320M740 80V1320M940 80V1320"/>
  </g>
  <rect x="90" y="90" width="1020" height="1220" rx="36" stroke="#F5F5F5" stroke-opacity=".28"/>
  <path d="M250 780L420 690L600 520L780 690L950 780L760 760L600 920L440 760L250 780Z" stroke="#F5F5F5" stroke-width="8"/>
  <path d="M600 520V980" stroke="#F5F5F5" stroke-opacity=".5" stroke-dasharray="14 16"/>
  <text x="120" y="170" fill="#F5F5F5" fill-opacity=".9" font-family="Arial, Helvetica, sans-serif" font-size="32" letter-spacing="10">BLACK SKY LABS</text>
  <text x="120" y="230" fill="#F5F5F5" fill-opacity=".55" font-family="Arial, Helvetica, sans-serif" font-size="22" letter-spacing="8">B-1 LANCER BLUEPRINT TEE</text>
  <text x="120" y="1180" fill="#F5F5F5" fill-opacity=".5" font-family="Arial, Helvetica, sans-serif" font-size="22" letter-spacing="6">VARIABLE SWEEP PROFILE / PLACEHOLDER COLLECTION ART</text>
</svg>
