<svg xmlns="http://www.w3.org/2000/svg" viewBox="0 0 1200 1400" fill="none">
  <rect width="1200" height="1400" fill="#090909"/>
  <g opacity=".2" stroke="#D9D9D9">
    <path d="M80 120H1120M80 260H1120M80 400H1120M80 540H1120M80 680H1120M80 820H1120M80 960H1120M80 1100H1120M80 1240H1120"/>
    <path d="M120 80V1320M280 80V1320M440 80V1320M600 80V1320M760 80V1320M920 80V1320M1080 80V1320"/>
  </g>
  <rect x="90" y="90" width="1020" height="1220" rx="36" stroke="#F5F5F5" stroke-opacity=".3"/>
  <path d="M260 760L600 360L940 760L720 700L600 860L480 700L260 760Z" stroke="#F5F5F5" stroke-width="8"/>
  <path d="M350 855H850" stroke="#F5F5F5" stroke-width="4" stroke-dasharray="16 16"/>
  <path d="M600 360V1030" stroke="#F5F5F5" stroke-width="3" stroke-dasharray="14 14"/>
  <text x="120" y="170" fill="#F5F5F5" fill-opacity=".9" font-family="Arial, Helvetica, sans-serif" font-size="32" letter-spacing="10">BLACK SKY LABS</text>
  <text x="120" y="230" fill="#F5F5F5" fill-opacity=".55" font-family="Arial, Helvetica, sans-serif" font-size="22" letter-spacing="8">F-22 BLUEPRINT TEE</text>
  <text x="120" y="1180" fill="#F5F5F5" fill-opacity=".5" font-family="Arial, Helvetica, sans-serif" font-size="22" letter-spacing="6">AIRCRAFT STUDY / PROFILE OUTLINE / PLACEHOLDER ART</text>
</svg>
